<svg width="178" height="32" viewBox="0 0 178 32" fill="none" xmlns="http://www.w3.org/2000/svg">
<path d="M9.33794 26.8807C7.47735 26.8807 5.87693 26.4865 4.53668 25.6981C3.20431 24.9018 2.17941 23.7981 1.46198 22.3869C0.752431 20.9757 0.397658 19.3516 0.397658 17.5146C0.397658 15.6541 0.756373 14.0221 1.4738 12.6188C2.19912 11.2076 3.22796 10.1078 4.56033 9.31939C5.8927 8.52312 7.47735 8.12499 9.31429 8.12499C10.8989 8.12499 12.2865 8.41275 13.477 8.98827C14.6674 9.56379 15.6095 10.3719 16.3033 11.4126C16.9971 12.4532 17.3795 13.6752 17.4504 15.0785H12.6965C12.5624 14.1719 12.2077 13.4426 11.6321 12.8908C11.0645 12.331 10.3195 12.0511 9.39707 12.0511C8.61656 12.0511 7.93461 12.264 7.35121 12.6897C6.77569 13.1076 6.32631 13.7186 6.00307 14.5227C5.67983 15.3269 5.51821 16.3005 5.51821 17.4437C5.51821 18.6026 5.67589 19.5881 5.99125 20.4001C6.31448 21.2122 6.7678 21.8311 7.35121 22.2568C7.93461 22.6825 8.61656 22.8954 9.39707 22.8954C9.97259 22.8954 10.489 22.7771 10.9462 22.5406C11.4114 22.3041 11.7938 21.9611 12.0933 21.5118C12.4008 21.0545 12.6018 20.5066 12.6965 19.868H17.4504C17.3716 21.2555 16.9931 22.4775 16.3151 23.534C15.645 24.5825 14.7187 25.4024 13.5361 25.9937C12.3535 26.585 10.9541 26.8807 9.33794 26.8807ZM28.883 26.8807C27.046 26.8807 25.4574 26.4904 24.1172 25.7099C22.7848 24.9215 21.756 23.8257 21.0307 22.4223C20.3053 21.0111 19.9427 19.3752 19.9427 17.5146C19.9427 15.6383 20.3053 13.9985 21.0307 12.5951C21.756 11.1839 22.7848 10.0881 24.1172 9.30756C25.4574 8.51918 27.046 8.12499 28.883 8.12499C30.7199 8.12499 32.3046 8.51918 33.6369 9.30756C34.9772 10.0881 36.01 11.1839 36.7353 12.5951C37.4606 13.9985 37.8232 15.6383 37.8232 17.5146C37.8232 19.3752 37.4606 21.0111 36.7353 22.4223C36.01 23.8257 34.9772 24.9215 33.6369 25.7099C32.3046 26.4904 30.7199 26.8807 28.883 26.8807ZM28.9066 22.9781C29.7423 22.9781 30.44 22.7416 30.9998 22.2686C31.5595 21.7877 31.9813 21.1333 32.2651 20.3055C32.5568 19.4777 32.7027 18.5356 32.7027 17.4792C32.7027 16.4227 32.5568 15.4806 32.2651 14.6528C31.9813 13.825 31.5595 13.1706 30.9998 12.6897C30.44 12.2088 29.7423 11.9684 28.9066 11.9684C28.063 11.9684 27.3535 12.2088 26.778 12.6897C26.2103 13.1706 25.7807 13.825 25.489 14.6528C25.2052 15.4806 25.0632 16.4227 25.0632 17.4792C25.0632 18.5356 25.2052 19.4777 25.489 20.3055C25.7807 21.1333 26.2103 21.7877 26.778 22.2686C27.3535 22.7416 28.063 22.9781 28.9066 22.9781ZM47.7924 26.8215C46.4127 26.8215 45.1631 26.4668 44.0436 25.7572C42.932 25.0398 42.049 23.9873 41.3946 22.5997C40.7482 21.2043 40.4249 19.4935 40.4249 17.4673C40.4249 15.386 40.76 13.6555 41.4301 12.2758C42.1002 10.8883 42.9911 9.85155 44.1027 9.16566C45.2222 8.47188 46.4482 8.12499 47.7805 8.12499C48.7976 8.12499 49.6451 8.29843 50.3231 8.64532C51.009 8.98433 51.5608 9.41006 51.9787 9.9225C52.4044 10.4271 52.7277 10.9238 52.9484 11.4126H53.1021V2.30671H58.1281V26.5259H53.1613V23.6167H52.9484C52.7119 24.1213 52.3768 24.6219 51.9432 25.1186C51.5175 25.6074 50.9617 26.0134 50.2758 26.3367C49.5978 26.6599 48.77 26.8215 47.7924 26.8215ZM49.3888 22.8126C50.2009 22.8126 50.8868 22.5918 51.4465 22.1503C52.0142 21.701 52.4478 21.0742 52.7474 20.27C53.0548 19.4659 53.2086 18.5238 53.2086 17.4437C53.2086 16.3636 53.0588 15.4254 52.7592 14.6292C52.4596 13.8329 52.026 13.218 51.4584 12.7843C50.8907 12.3507 50.2009 12.1339 49.3888 12.1339C48.561 12.1339 47.8633 12.3586 47.2957 12.808C46.728 13.2574 46.2984 13.8802 46.0067 14.6765C45.715 15.4727 45.5691 16.3951 45.5691 17.4437C45.5691 18.5001 45.715 19.4344 46.0067 20.2464C46.3063 21.0505 46.7359 21.6813 47.2957 22.1385C47.8633 22.5879 48.561 22.8126 49.3888 22.8126ZM70.5481 26.8807C68.6796 26.8807 67.0713 26.5022 65.7232 25.7454C64.3829 24.9806 63.3501 23.9006 62.6248 22.5051C61.8995 21.1018 61.5369 19.4422 61.5369 17.5265C61.5369 15.658 61.8995 14.0182 62.6248 12.607C63.3501 11.1957 64.3711 10.0959 65.6877 9.30756C67.0122 8.51918 68.5653 8.12499 70.3471 8.12499C71.5454 8.12499 72.661 8.31814 73.6938 8.70445C74.7344 9.08288 75.6411 9.65445 76.4137 10.4192C77.1942 11.1839 77.8012 12.1457 78.2348 13.3047C78.6685 14.4557 78.8853 15.8039 78.8853 17.3491V18.7327H63.5472V15.6107H74.1431C74.1431 14.8854 73.9855 14.2429 73.6701 13.6831C73.3547 13.1233 72.9172 12.6858 72.3574 12.3704C71.8056 12.0472 71.163 11.8856 70.4298 11.8856C69.6651 11.8856 68.9871 12.063 68.3958 12.4177C67.8124 12.7646 67.3551 13.2337 67.024 13.825C66.6929 14.4084 66.5234 15.0588 66.5155 15.7763V18.7445C66.5155 19.6433 66.6811 20.4198 67.0122 21.0742C67.3512 21.7286 67.8282 22.2331 68.4431 22.5879C69.0581 22.9427 69.7873 23.1201 70.6309 23.1201C71.1906 23.1201 71.7031 23.0412 72.1682 22.8835C72.6334 22.7259 73.0315 22.4894 73.3626 22.174C73.6938 21.8586 73.946 21.4723 74.1195 21.0151L78.7788 21.3225C78.5423 22.442 78.0575 23.4196 77.3243 24.2553C76.5989 25.0831 75.6608 25.7296 74.5097 26.1948C73.3666 26.652 72.046 26.8807 70.5481 26.8807ZM84.7337 31.7883V1.85733H94.0642V5.61793H89.6059V28.0159H94.0642V31.7883H84.7337ZM177.352 1.85733V31.7883H168.022V28.0159H172.48V5.61793H168.022V1.85733H177.352Z" fill="#E5E7EB"/>
<path d="M116.493 8.3615L110.143 26.5259H104.466L98.1157 8.3615H103.437L107.21 21.358H107.399L111.16 8.3615H116.493ZM119.071 26.5259V8.3615H124.109V26.5259H119.071ZM121.602 6.02C120.853 6.02 120.21 5.77166 119.674 5.27498C119.146 4.77041 118.882 4.1673 118.882 3.46564C118.882 2.77186 119.146 2.17663 119.674 1.67995C120.21 1.17538 120.853 0.923097 121.602 0.923097C122.351 0.923097 122.989 1.17538 123.517 1.67995C124.054 2.17663 124.322 2.77186 124.322 3.46564C124.322 4.1673 124.054 4.77041 123.517 5.27498C122.989 5.77166 122.351 6.02 121.602 6.02ZM128.05 26.5259V23.5221L136.943 12.5123V12.3823H128.357V8.3615H143.009V11.6372L134.66 22.375V22.5051H143.317V26.5259H128.05ZM154.927 26.8807C153.058 26.8807 151.45 26.5022 150.102 25.7454C148.762 24.9806 147.729 23.9006 147.003 22.5051C146.278 21.1018 145.915 19.4422 145.915 17.5265C145.915 15.658 146.278 14.0182 147.003 12.607C147.729 11.1957 148.75 10.0959 150.066 9.30756C151.391 8.51918 152.944 8.12499 154.726 8.12499C155.924 8.12499 157.04 8.31814 158.072 8.70445C159.113 9.08288 160.02 9.65445 160.792 10.4192C161.573 11.1839 162.18 12.1457 162.613 13.3047C163.047 14.4557 163.264 15.8039 163.264 17.3491V18.7327H147.926V15.6107H158.522C158.522 14.8854 158.364 14.2429 158.049 13.6831C157.733 13.1233 157.296 12.6858 156.736 12.3704C156.184 12.0472 155.542 11.8856 154.808 11.8856C154.044 11.8856 153.366 12.063 152.774 12.4177C152.191 12.7646 151.734 13.2337 151.403 13.825C151.071 14.4084 150.902 15.0588 150.894 15.7763V18.7445C150.894 19.6433 151.06 20.4198 151.391 21.0742C151.73 21.7286 152.207 22.2331 152.822 22.5879C153.437 22.9427 154.166 23.1201 155.009 23.1201C155.569 23.1201 156.082 23.0412 156.547 22.8835C157.012 22.7259 157.41 22.4894 157.741 22.174C158.072 21.8586 158.325 21.4723 158.498 21.0151L163.157 21.3225C162.921 22.442 162.436 23.4196 161.703 24.2553C160.978 25.0831 160.039 25.7296 158.888 26.1948C157.745 26.652 156.425 26.8807 154.927 26.8807Z" fill="url(#paint0_linear_76_54)"/>
<defs>
<linearGradient id="paint0_linear_76_54" x1="90" y1="-5.47412" x2="90" y2="34.5259" gradientUnits="userSpaceOnUse">
<stop stop-color="#0A7367"/>
<stop offset="1" stop-color="#9DFFF4"/>
</linearGradient>
</defs>
</svg>
